<?xml version="1.0" encoding="UTF-8" standalone="no"?><!DOCTYPE svg PUBLIC "-//W3C//DTD SVG 1.1//EN" "http://www.w3.org/Graphics/SVG/1.1/DTD/svg11.dtd"><!-- Generated by graphviz version 2.40.1 (20161225.0304)
 --><!-- Title: G Pages: 1 --><svg xmlns="http://www.w3.org/2000/svg" xmlns:xlink="http://www.w3.org/1999/xlink" width="140pt" height="188pt" viewBox="0.00 0.00 140.34 188.00">
<g id="graph0" class="graph" transform="scale(1 1) rotate(0) translate(4 184)">
<title>G</title>
<polygon fill="#ffffff" stroke="transparent" points="-4,4 -4,-184 136.3369,-184 136.3369,4 -4,4"/>
<!-- three -->
<g id="node1" class="node">
<title>three</title>
<ellipse fill="none" stroke="#000000" cx="30.3369" cy="-90" rx="30.1746" ry="18"/>
<text text-anchor="middle" x="30.3369" y="-85.8" font-family="Times,serif" font-size="14.00" fill="#000000">three</text>
</g>
<!-- four -->
<g id="node2" class="node">
<title>four</title>
<ellipse fill="none" stroke="#000000" cx="67.3369" cy="-18" rx="27.2467" ry="18"/>
<text text-anchor="middle" x="67.3369" y="-13.8" font-family="Times,serif" font-size="14.00" fill="#000000">four</text>
</g>
<!-- three&#45;&gt;four -->
<g id="edge1" class="edge">
<title>three-&gt;four</title>
<path fill="none" stroke="#000000" d="M39.2935,-72.5708C43.6565,-64.0807 48.9947,-53.6929 53.8383,-44.2674"/>
<polygon fill="#000000" stroke="#000000" points="57.005,-45.7628 58.4627,-35.2687 50.7789,-42.5633 57.005,-45.7628"/>
</g>
<!-- one -->
<g id="node3" class="node">
<title>one</title>
<ellipse fill="none" stroke="#000000" cx="67.3369" cy="-162" rx="27" ry="18"/>
<text text-anchor="middle" x="67.3369" y="-157.8" font-family="Times,serif" font-size="14.00" fill="#000000">one</text>
</g>
<!-- one&#45;&gt;three -->
<g id="edge3" class="edge">
<title>one-&gt;three</title>
<path fill="none" stroke="#000000" d="M58.5684,-144.937C54.2089,-136.4537 48.8416,-126.0092 43.9616,-116.513"/>
<polygon fill="#000000" stroke="#000000" points="46.9832,-114.7352 39.2994,-107.4407 40.7572,-117.9348 46.9832,-114.7352"/>
</g>
<!-- two -->
<g id="node4" class="node">
<title>two</title>
<ellipse fill="none" stroke="#000000" cx="105.3369" cy="-90" rx="27" ry="18"/>
<text text-anchor="middle" x="105.3369" y="-85.8" font-family="Times,serif" font-size="14.00" fill="#000000">two</text>
</g>
<!-- one&#45;&gt;two -->
<g id="edge2" class="edge">
<title>one-&gt;two</title>
<path fill="none" stroke="#000000" d="M76.3423,-144.937C80.8196,-136.4537 86.332,-126.0092 91.3439,-116.513"/>
<polygon fill="#000000" stroke="#000000" points="94.5598,-117.9182 96.1321,-107.4407 88.3691,-114.6509 94.5598,-117.9182"/>
</g>
<!-- two&#45;&gt;four -->
<g id="edge4" class="edge">
<title>two-&gt;four</title>
<path fill="none" stroke="#000000" d="M96.3314,-72.937C91.8541,-64.4537 86.3417,-54.0092 81.3298,-44.513"/>
<polygon fill="#000000" stroke="#000000" points="84.3047,-42.6509 76.5417,-35.4407 78.114,-45.9182 84.3047,-42.6509"/>
</g>
</g>
</svg>